<svg xmlns="http://www.w3.org/2000/svg" xmlns:xlink="http://www.w3.org/1999/xlink" contentStyleType="text/css" height="1192px" preserveAspectRatio="none" style="width:1440px;height:1192px;background:#FFFFFF;" version="1.1" viewBox="0 0 1440 1192" width="1440px" zoomAndPan="magnify"><defs/><g><!--class HousingMarket--><g id="elem_HousingMarket"><rect codeLine="8" fill="#F1F1F1" height="178.3477" id="HousingMarket" rx="2.5" ry="2.5" style="stroke:#181818;stroke-width:0.5;" width="457.1084" x="7" y="35"/><ellipse cx="184.2285" cy="51" fill="#ADD1B2" rx="11" ry="11" style="stroke:#181818;stroke-width:1.0;"/><path d="M186.9941,46.875 Q187.1504,46.6563 187.3379,46.5469 Q187.5254,46.4375 187.7441,46.4375 Q188.1191,46.4375 188.3535,46.7031 Q188.5879,46.9531 188.5879,47.5625 L188.5879,49.0156 Q188.5879,49.625 188.3535,49.8906 Q188.1191,50.1563 187.7441,50.1563 Q187.4004,50.1563 187.1973,49.9531 Q186.9941,49.7656 186.8848,49.25 Q186.8379,48.8906 186.6504,48.7031 Q186.3223,48.3281 185.7129,48.1094 Q185.1035,47.8906 184.4785,47.8906 Q183.7129,47.8906 183.0723,48.2188 Q182.4473,48.5469 181.9473,49.2969 Q181.4629,50.0469 181.4629,51.0781 L181.4629,52.1719 Q181.4629,53.4063 182.3535,54.2344 Q183.2441,55.0469 184.8379,55.0469 Q185.7754,55.0469 186.4316,54.7969 Q186.8223,54.6406 187.2441,54.2031 Q187.5098,53.9375 187.6504,53.8594 Q187.8066,53.7813 188.0098,53.7813 Q188.3379,53.7813 188.5879,54.0469 Q188.8535,54.2969 188.8535,54.6406 Q188.8535,54.9844 188.5098,55.3906 Q188.0098,55.9688 187.2129,56.2969 Q186.1348,56.75 184.8379,56.75 Q183.3223,56.75 182.1191,56.125 Q181.1348,55.625 180.4473,54.5625 Q179.7598,53.4844 179.7598,52.2031 L179.7598,51.0469 Q179.7598,49.7188 180.3691,48.5781 Q180.9941,47.4219 182.0879,46.8125 Q183.1816,46.1875 184.416,46.1875 Q185.1504,46.1875 185.791,46.3594 Q186.4473,46.5156 186.9941,46.875 Z " fill="#000000"/><text fill="#000000" font-family="sans-serif" font-size="14" lengthAdjust="spacing" textLength="94.1514" x="204.7285" y="56.7969">HousingMarket</text><line style="stroke:#181818;stroke-width:0.5;" x1="8" x2="463.1084" y1="67" y2="67"/><ellipse cx="18" cy="81.8105" fill="none" rx="3" ry="3" style="stroke:#038048;stroke-width:1.0;"/><text fill="#000000" font-family="sans-serif" font-size="14" lengthAdjust="spacing" text-decoration="underline" textLength="101.9443" x="27" y="86.1074">interest : Double</text><rect fill="none" height="6" style="stroke:#C82930;stroke-width:1.0;" width="6" x="15" y="97.4316"/><text fill="#000000" font-family="sans-serif" font-size="14" lengthAdjust="spacing" textLength="213.999" x="27" y="104.7285">allHouses : MutableList&lt;Property&gt;</text><line style="stroke:#181818;stroke-width:0.5;" x1="8" x2="463.1084" y1="112.2422" y2="112.2422"/><ellipse cx="18" cy="127.0527" fill="#84BE84" rx="3" ry="3" style="stroke:#038048;stroke-width:1.0;"/><text fill="#000000" font-family="sans-serif" font-size="14" lengthAdjust="spacing" textLength="165.7305" x="27" y="131.3496">advertise(home : Property)</text><ellipse cx="18" cy="145.6738" fill="#84BE84" rx="3" ry="3" style="stroke:#038048;stroke-width:1.0;"/><text fill="#000000" font-family="sans-serif" font-size="14" lengthAdjust="spacing" textLength="203.8682" x="27" y="149.9707">advertise(home : List&lt;Property&gt;)</text><ellipse cx="18" cy="164.2949" fill="#84BE84" rx="3" ry="3" style="stroke:#038048;stroke-width:1.0;"/><text fill="#000000" font-family="sans-serif" font-size="14" lengthAdjust="spacing" text-decoration="underline" textLength="431.1084" x="27" y="168.5918">showAdvertisements(selection: List&lt;Property&gt;, includeBids: Boolean)</text><ellipse cx="18" cy="182.916" fill="#84BE84" rx="3" ry="3" style="stroke:#038048;stroke-width:1.0;"/><text fill="#000000" font-family="sans-serif" font-size="14" lengthAdjust="spacing" textLength="334.9814" x="27" y="187.2129">search(query : (Property) -&gt; Boolean) : List&lt;Property&gt;</text><ellipse cx="18" cy="201.5371" fill="#84BE84" rx="3" ry="3" style="stroke:#038048;stroke-width:1.0;"/><text fill="#000000" font-family="sans-serif" font-size="14" lengthAdjust="spacing" textLength="347.7988" x="27" y="205.834">search(minPrice : Int = 0, maxPrice : Int = Int.MaxValue)</text></g><!--class Property--><g id="elem_Property"><rect codeLine="22" fill="#F1F1F1" height="178.3477" id="Property" rx="2.5" ry="2.5" style="stroke:#181818;stroke-width:0.5;" width="316.2061" x="326.5" y="354.5"/><ellipse cx="453.8979" cy="370.5" fill="#A9DCDF" rx="11" ry="11" style="stroke:#181818;stroke-width:1.0;"/><path d="M456.0854,372.2656 L451.9448,372.2656 L451.5229,373.2969 L451.9448,373.2969 Q452.5542,373.2969 452.8198,373.5313 Q453.0854,373.7656 453.0854,374.1563 Q453.0854,374.5313 452.8198,374.7656 Q452.5542,375 451.9448,375 L449.6479,375 Q449.0386,375 448.7886,374.7656 Q448.5229,374.5313 448.5229,374.1406 Q448.5229,373.7656 448.8042,373.5313 Q449.0698,373.2813 449.6948,373.2969 L452.3667,366.6406 L451.2573,366.6406 Q450.6479,366.6406 450.3823,366.4063 Q450.1167,366.1719 450.1167,365.7813 Q450.1167,365.4063 450.3823,365.1719 Q450.6479,364.9375 451.2573,364.9375 L454.9292,364.9375 L458.3198,373.2969 Q458.9136,373.2969 459.1011,373.4375 Q459.4917,373.7031 459.4917,374.1563 Q459.4917,374.5313 459.2261,374.7656 Q458.9761,375 458.3667,375 L456.0698,375 Q455.4604,375 455.1948,374.7656 Q454.9292,374.5313 454.9292,374.1406 Q454.9292,373.7656 455.1948,373.5313 Q455.4604,373.2969 456.0698,373.2969 L456.4917,373.2969 L456.0854,372.2656 Z M455.3667,370.5625 L454.0073,367.1875 L452.6323,370.5625 L455.3667,370.5625 Z " fill="#000000"/><text fill="#000000" font-family="sans-serif" font-size="14" font-style="italic" lengthAdjust="spacing" textLength="52.9102" x="474.3979" y="376.2969">Property</text><line style="stroke:#181818;stroke-width:0.5;" x1="327.5" x2="641.7061" y1="386.5" y2="386.5"/><ellipse cx="337.5" cy="401.3105" fill="none" rx="3" ry="3" style="stroke:#038048;stroke-width:1.0;"/><text fill="#000000" font-family="sans-serif" font-size="14" lengthAdjust="spacing" textLength="164.2061" x="346.5" y="405.6074">address: String {readOnly}</text><ellipse cx="337.5" cy="419.9316" fill="none" rx="3" ry="3" style="stroke:#038048;stroke-width:1.0;"/><text fill="#000000" font-family="sans-serif" font-size="14" lengthAdjust="spacing" textLength="154.8682" x="346.5" y="424.2285">livingArea: Int {readOnly}</text><ellipse cx="337.5" cy="438.5527" fill="none" rx="3" ry="3" style="stroke:#038048;stroke-width:1.0;"/><text fill="#000000" font-family="sans-serif" font-size="14" lengthAdjust="spacing" textLength="100.3857" x="346.5" y="442.8496">priceAsked: Int?</text><ellipse cx="337.5" cy="457.1738" fill="none" rx="3" ry="3" style="stroke:#038048;stroke-width:1.0;"/><text fill="#000000" font-family="sans-serif" font-size="14" lengthAdjust="spacing" textLength="111.2822" x="346.5" y="461.4707">allBids : List&lt;Bid&gt;</text><line style="stroke:#181818;stroke-width:0.5;" x1="327.5" x2="641.7061" y1="468.9844" y2="468.9844"/><ellipse cx="337.5" cy="483.7949" fill="#84BE84" rx="3" ry="3" style="stroke:#038048;stroke-width:1.0;"/><text fill="#000000" font-family="sans-serif" font-size="14" lengthAdjust="spacing" textLength="290.2061" x="346.5" y="488.0918">doOffer(customer: Customer, priceOffered: Int)</text><rect fill="#F24D5C" height="6" style="stroke:#C82930;stroke-width:1.0;" width="6" x="334.5" y="499.416"/><text fill="#000000" font-family="sans-serif" font-size="14" lengthAdjust="spacing" textLength="245.123" x="346.5" y="506.7129">isAccepted(priceOffered : Int) : Boolean</text><ellipse cx="337.5" cy="521.0371" fill="#84BE84" rx="3" ry="3" style="stroke:#038048;stroke-width:1.0;"/><text fill="#000000" font-family="sans-serif" font-size="14" font-style="italic" lengthAdjust="spacing" textLength="175.0752" x="346.5" y="525.334">getMonthlyPayments() : Int?</text></g><g id="elem_GMN6"><path d="M544.5,110.5 L544.5,137.791 A0,0 0 0 0 544.5,137.791 L719.43,137.791 L553.56,354.45 L727.43,137.791 L922.4414,137.791 A0,0 0 0 0 922.4414,137.791 L922.4414,120.5 L912.4414,110.5 L544.5,110.5 A0,0 0 0 0 544.5,110.5 " fill="#FEFFDD" style="stroke:#181818;stroke-width:0.5;"/><path d="M912.4414,110.5 L912.4414,120.5 L922.4414,120.5 L912.4414,110.5 " fill="#FEFFDD" style="stroke:#181818;stroke-width:0.5;"/><text fill="#000000" font-family="sans-serif" font-size="13" lengthAdjust="spacing" textLength="356.9414" x="550.5" y="129.5283">this class represents an advertisement for a real-estate broker</text></g><!--class Locatable--><g id="elem_Locatable"><rect codeLine="33" fill="#F1F1F1" height="66.6211" id="Locatable" rx="2.5" ry="2.5" style="stroke:#181818;stroke-width:0.5;" width="169.9922" x="1002.5" y="90.5"/><ellipse cx="1052.8877" cy="106.5" fill="#B4A7E5" rx="11" ry="11" style="stroke:#181818;stroke-width:1.0;"/><path d="M1053.8408,103.1406 L1053.8408,109.7969 L1055.5596,109.7969 Q1056.1689,109.7969 1056.4346,110.0313 Q1056.7002,110.2656 1056.7002,110.6563 Q1056.7002,111.0313 1056.4346,111.2656 Q1056.1689,111.5 1055.5596,111.5 L1050.4189,111.5 Q1049.8096,111.5 1049.5439,111.2656 Q1049.2783,111.0313 1049.2783,110.6406 Q1049.2783,110.2656 1049.5439,110.0313 Q1049.8096,109.7969 1050.4189,109.7969 L1052.1377,109.7969 L1052.1377,103.1406 L1050.4189,103.1406 Q1049.8096,103.1406 1049.5439,102.9063 Q1049.2783,102.6719 1049.2783,102.2813 Q1049.2783,101.9063 1049.5439,101.6719 Q1049.8096,101.4375 1050.4189,101.4375 L1055.5596,101.4375 Q1056.1689,101.4375 1056.4346,101.6719 Q1056.7002,101.9063 1056.7002,102.2813 Q1056.7002,102.6719 1056.4346,102.9063 Q1056.1689,103.1406 1055.5596,103.1406 L1053.8408,103.1406 Z " fill="#000000"/><text fill="#000000" font-family="sans-serif" font-size="14" font-style="italic" lengthAdjust="spacing" textLength="60.7168" x="1073.3877" y="112.2969">Locatable</text><line style="stroke:#181818;stroke-width:0.5;" x1="1003.5" x2="1171.4922" y1="122.5" y2="122.5"/><line style="stroke:#181818;stroke-width:0.5;" x1="1003.5" x2="1171.4922" y1="130.5" y2="130.5"/><ellipse cx="1013.5" cy="145.3105" fill="#84BE84" rx="3" ry="3" style="stroke:#038048;stroke-width:1.0;"/><text fill="#000000" font-family="sans-serif" font-size="14" lengthAdjust="spacing" textLength="143.9922" x="1022.5" y="149.6074">getLocation() : LatLong</text></g><!--class Garage--><g id="elem_Garage"><rect codeLine="42" fill="#F1F1F1" height="85.2422" id="Garage" rx="2.5" ry="2.5" style="stroke:#181818;stroke-width:0.5;" width="241.5645" x="303.5" y="646"/><ellipse cx="396.6841" cy="662" fill="#ADD1B2" rx="11" ry="11" style="stroke:#181818;stroke-width:1.0;"/><path d="M399.4497,657.875 Q399.606,657.6563 399.7935,657.5469 Q399.981,657.4375 400.1997,657.4375 Q400.5747,657.4375 400.8091,657.7031 Q401.0435,657.9531 401.0435,658.5625 L401.0435,660.0156 Q401.0435,660.625 400.8091,660.8906 Q400.5747,661.1563 400.1997,661.1563 Q399.856,661.1563 399.6528,660.9531 Q399.4497,660.7656 399.3403,660.25 Q399.2935,659.8906 399.106,659.7031 Q398.7778,659.3281 398.1685,659.1094 Q397.5591,658.8906 396.9341,658.8906 Q396.1685,658.8906 395.5278,659.2188 Q394.9028,659.5469 394.4028,660.2969 Q393.9185,661.0469 393.9185,662.0781 L393.9185,663.1719 Q393.9185,664.4063 394.8091,665.2344 Q395.6997,666.0469 397.2935,666.0469 Q398.231,666.0469 398.8872,665.7969 Q399.2778,665.6406 399.6997,665.2031 Q399.9653,664.9375 400.106,664.8594 Q400.2622,664.7813 400.4653,664.7813 Q400.7935,664.7813 401.0435,665.0469 Q401.3091,665.2969 401.3091,665.6406 Q401.3091,665.9844 400.9653,666.3906 Q400.4653,666.9688 399.6685,667.2969 Q398.5903,667.75 397.2935,667.75 Q395.7778,667.75 394.5747,667.125 Q393.5903,666.625 392.9028,665.5625 Q392.2153,664.4844 392.2153,663.2031 L392.2153,662.0469 Q392.2153,660.7188 392.8247,659.5781 Q393.4497,658.4219 394.5435,657.8125 Q395.6372,657.1875 396.8716,657.1875 Q397.606,657.1875 398.2466,657.3594 Q398.9028,657.5156 399.4497,657.875 Z " fill="#000000"/><text fill="#000000" font-family="sans-serif" font-size="14" lengthAdjust="spacing" textLength="46.6963" x="417.1841" y="667.7969">Garage</text><line style="stroke:#181818;stroke-width:0.5;" x1="304.5" x2="544.0645" y1="678" y2="678"/><ellipse cx="314.5" cy="692.8105" fill="none" rx="3" ry="3" style="stroke:#038048;stroke-width:1.0;"/><text fill="#000000" font-family="sans-serif" font-size="14" lengthAdjust="spacing" textLength="215.5645" x="323.5" y="697.1074">hasElectricity : Boolean {readOnly}</text><line style="stroke:#181818;stroke-width:0.5;" x1="304.5" x2="544.0645" y1="704.6211" y2="704.6211"/><ellipse cx="314.5" cy="719.4316" fill="#84BE84" rx="3" ry="3" style="stroke:#038048;stroke-width:1.0;"/><text fill="#000000" font-family="sans-serif" font-size="14" lengthAdjust="spacing" textLength="175.0752" x="323.5" y="723.7285">getMonthlyPayments() : Int?</text></g><!--class Apartment--><g id="elem_Apartment"><rect codeLine="47" fill="#F1F1F1" height="103.8633" id="Apartment" rx="2.5" ry="2.5" style="stroke:#181818;stroke-width:0.5;" width="202.6611" x="504" y="791"/><ellipse cx="568.7876" cy="807" fill="#ADD1B2" rx="11" ry="11" style="stroke:#181818;stroke-width:1.0;"/><path d="M571.5532,802.875 Q571.7095,802.6563 571.897,802.5469 Q572.0845,802.4375 572.3032,802.4375 Q572.6782,802.4375 572.9126,802.7031 Q573.147,802.9531 573.147,803.5625 L573.147,805.0156 Q573.147,805.625 572.9126,805.8906 Q572.6782,806.1563 572.3032,806.1563 Q571.9595,806.1563 571.7563,805.9531 Q571.5532,805.7656 571.4438,805.25 Q571.397,804.8906 571.2095,804.7031 Q570.8813,804.3281 570.272,804.1094 Q569.6626,803.8906 569.0376,803.8906 Q568.272,803.8906 567.6313,804.2188 Q567.0063,804.5469 566.5063,805.2969 Q566.022,806.0469 566.022,807.0781 L566.022,808.1719 Q566.022,809.4063 566.9126,810.2344 Q567.8032,811.0469 569.397,811.0469 Q570.3345,811.0469 570.9907,810.7969 Q571.3813,810.6406 571.8032,810.2031 Q572.0688,809.9375 572.2095,809.8594 Q572.3657,809.7813 572.5688,809.7813 Q572.897,809.7813 573.147,810.0469 Q573.4126,810.2969 573.4126,810.6406 Q573.4126,810.9844 573.0688,811.3906 Q572.5688,811.9688 571.772,812.2969 Q570.6938,812.75 569.397,812.75 Q567.8813,812.75 566.6782,812.125 Q565.6938,811.625 565.0063,810.5625 Q564.3188,809.4844 564.3188,808.2031 L564.3188,807.0469 Q564.3188,805.7188 564.9282,804.5781 Q565.5532,803.4219 566.647,802.8125 Q567.7407,802.1875 568.9751,802.1875 Q569.7095,802.1875 570.3501,802.3594 Q571.0063,802.5156 571.5532,802.875 Z " fill="#000000"/><text fill="#000000" font-family="sans-serif" font-size="14" lengthAdjust="spacing" textLength="64.5859" x="589.2876" y="812.7969">Apartment</text><line style="stroke:#181818;stroke-width:0.5;" x1="505" x2="705.6611" y1="823" y2="823"/><ellipse cx="515" cy="837.8105" fill="none" rx="3" ry="3" style="stroke:#038048;stroke-width:1.0;"/><text fill="#000000" font-family="sans-serif" font-size="14" lengthAdjust="spacing" textLength="124.5166" x="524" y="842.1074">floor : Int {readOnly}</text><ellipse cx="515" cy="856.4316" fill="none" rx="3" ry="3" style="stroke:#038048;stroke-width:1.0;"/><text fill="#000000" font-family="sans-serif" font-size="14" lengthAdjust="spacing" textLength="176.6611" x="524" y="860.7285">paymentHoa : Int {readOnly}</text><line style="stroke:#181818;stroke-width:0.5;" x1="505" x2="705.6611" y1="868.2422" y2="868.2422"/><ellipse cx="515" cy="883.0527" fill="#84BE84" rx="3" ry="3" style="stroke:#038048;stroke-width:1.0;"/><text fill="#000000" font-family="sans-serif" font-size="14" lengthAdjust="spacing" textLength="175.0752" x="524" y="887.3496">getMonthlyPayments() : Int?</text></g><!--class House--><g id="elem_House"><rect codeLine="56" fill="#F1F1F1" height="103.8633" id="House" rx="2.5" ry="2.5" style="stroke:#181818;stroke-width:0.5;" width="216.668" x="608" y="955"/><ellipse cx="691.8496" cy="971" fill="#ADD1B2" rx="11" ry="11" style="stroke:#181818;stroke-width:1.0;"/><path d="M694.6152,966.875 Q694.7715,966.6563 694.959,966.5469 Q695.1465,966.4375 695.3652,966.4375 Q695.7402,966.4375 695.9746,966.7031 Q696.209,966.9531 696.209,967.5625 L696.209,969.0156 Q696.209,969.625 695.9746,969.8906 Q695.7402,970.1563 695.3652,970.1563 Q695.0215,970.1563 694.8184,969.9531 Q694.6152,969.7656 694.5059,969.25 Q694.459,968.8906 694.2715,968.7031 Q693.9434,968.3281 693.334,968.1094 Q692.7246,967.8906 692.0996,967.8906 Q691.334,967.8906 690.6934,968.2188 Q690.0684,968.5469 689.5684,969.2969 Q689.084,970.0469 689.084,971.0781 L689.084,972.1719 Q689.084,973.4063 689.9746,974.2344 Q690.8652,975.0469 692.459,975.0469 Q693.3965,975.0469 694.0527,974.7969 Q694.4434,974.6406 694.8652,974.2031 Q695.1309,973.9375 695.2715,973.8594 Q695.4277,973.7813 695.6309,973.7813 Q695.959,973.7813 696.209,974.0469 Q696.4746,974.2969 696.4746,974.6406 Q696.4746,974.9844 696.1309,975.3906 Q695.6309,975.9688 694.834,976.2969 Q693.7559,976.75 692.459,976.75 Q690.9434,976.75 689.7402,976.125 Q688.7559,975.625 688.0684,974.5625 Q687.3809,973.4844 687.3809,972.2031 L687.3809,971.0469 Q687.3809,969.7188 687.9902,968.5781 Q688.6152,967.4219 689.709,966.8125 Q690.8027,966.1875 692.0371,966.1875 Q692.7715,966.1875 693.4121,966.3594 Q694.0684,966.5156 694.6152,966.875 Z " fill="#000000"/><text fill="#000000" font-family="sans-serif" font-size="14" lengthAdjust="spacing" textLength="40.4688" x="712.3496" y="976.7969">House</text><line style="stroke:#181818;stroke-width:0.5;" x1="609" x2="823.668" y1="987" y2="987"/><ellipse cx="619" cy="1001.8105" fill="none" rx="3" ry="3" style="stroke:#038048;stroke-width:1.0;"/><text fill="#000000" font-family="sans-serif" font-size="14" lengthAdjust="spacing" textLength="190.668" x="628" y="1006.1074">type : HousingType {readOnly}</text><ellipse cx="619" cy="1020.4316" fill="none" rx="3" ry="3" style="stroke:#038048;stroke-width:1.0;"/><text fill="#000000" font-family="sans-serif" font-size="14" lengthAdjust="spacing" textLength="149.4268" x="628" y="1024.7285">plotArea : Int {readOnly}</text><line style="stroke:#181818;stroke-width:0.5;" x1="609" x2="823.668" y1="1032.2422" y2="1032.2422"/><ellipse cx="619" cy="1047.0527" fill="#84BE84" rx="3" ry="3" style="stroke:#038048;stroke-width:1.0;"/><text fill="#000000" font-family="sans-serif" font-size="14" lengthAdjust="spacing" textLength="175.0752" x="628" y="1051.3496">getMonthlyPayments() : Int?</text></g><path d="M949.5,824.5 L949.5,834.1455 L700.6611,854.9316 L949.5,842.1455 L949.5,851.791 A0,0 0 0 0 949.5,851.791 L1279.7388,851.791 A0,0 0 0 0 1279.7388,851.791 L1279.7388,834.5 L1269.7388,824.5 L949.5,824.5 A0,0 0 0 0 949.5,824.5 " fill="#FEFFDD" style="stroke:#181818;stroke-width:0.5;"/><path d="M1269.7388,824.5 L1269.7388,834.5 L1279.7388,834.5 L1269.7388,824.5 " fill="#FEFFDD" style="stroke:#181818;stroke-width:0.5;"/><text fill="#000000" font-family="sans-serif" font-size="13" lengthAdjust="spacing" textLength="309.2388" x="955.5" y="843.5283">monthly payment for House Owner Association (VVE)</text><path d="M905,988.5 L905,998.1455 L777.4268,1018.9316 L905,1006.1455 L905,1015.791 A0,0 0 0 0 905,1015.791 L1011.9917,1015.791 A0,0 0 0 0 1011.9917,1015.791 L1011.9917,998.5 L1001.9917,988.5 L905,988.5 A0,0 0 0 0 905,988.5 " fill="#FEFFDD" style="stroke:#181818;stroke-width:0.5;"/><path d="M1001.9917,988.5 L1001.9917,998.5 L1011.9917,998.5 L1001.9917,988.5 " fill="#FEFFDD" style="stroke:#181818;stroke-width:0.5;"/><text fill="#000000" font-family="sans-serif" font-size="13" lengthAdjust="spacing" textLength="85.9917" x="911" y="1007.5283">plot area in m2</text><!--class HousingType--><g id="elem_HousingType"><rect codeLine="65" fill="#F1F1F1" height="66.6211" id="HousingType" rx="2.5" ry="2.5" style="stroke:#181818;stroke-width:0.5;" width="386.1582" x="523.5" y="1119"/><ellipse cx="671.0845" cy="1135" fill="#EB937F" rx="11" ry="11" style="stroke:#181818;stroke-width:1.0;"/><path d="M669.9438,1135.7969 L669.9438,1138.2969 L674.272,1138.2969 L674.272,1137.375 Q674.272,1136.7656 674.5063,1136.5 Q674.7563,1136.2344 675.1313,1136.2344 Q675.5063,1136.2344 675.7407,1136.5 Q675.9751,1136.7656 675.9751,1137.375 L675.9751,1140 L667.9751,1140 Q667.3501,1140 667.0845,1139.7656 Q666.8345,1139.5313 666.8345,1139.1406 Q666.8345,1138.7656 667.1001,1138.5313 Q667.3657,1138.2969 667.9751,1138.2969 L668.2407,1138.2969 L668.2407,1131.6406 L667.9751,1131.6406 Q667.3501,1131.6406 667.0845,1131.4063 Q666.8345,1131.1719 666.8345,1130.7813 Q666.8345,1130.4063 667.0845,1130.1719 Q667.3501,1129.9375 667.9751,1129.9375 L675.6001,1129.9375 L675.6001,1132.5313 Q675.6001,1133.1406 675.3657,1133.4063 Q675.147,1133.6563 674.7563,1133.6563 Q674.3813,1133.6563 674.147,1133.4063 Q673.9126,1133.1406 673.9126,1132.5313 L673.9126,1131.6406 L669.9438,1131.6406 L669.9438,1134.0938 L671.4282,1134.0938 Q671.4282,1133.4375 671.5532,1133.25 Q671.8188,1132.8438 672.2876,1132.8438 Q672.6626,1132.8438 672.897,1133.1094 Q673.1313,1133.3594 673.1313,1133.9688 L673.1313,1135.9375 Q673.1313,1136.4844 673.0063,1136.6719 Q672.7407,1137.0625 672.2876,1137.0625 Q671.8188,1137.0625 671.5532,1136.6563 Q671.4282,1136.4688 671.4282,1135.7969 L669.9438,1135.7969 Z " fill="#000000"/><text fill="#000000" font-family="sans-serif" font-size="14" lengthAdjust="spacing" textLength="82.4893" x="691.5845" y="1140.7969">HousingType</text><line style="stroke:#181818;stroke-width:0.5;" x1="524.5" x2="908.6582" y1="1151" y2="1151"/><text fill="#000000" font-family="sans-serif" font-size="14" lengthAdjust="spacing" textLength="374.1582" x="529.5" y="1170.1074">DETACHED,SEMI_DETACHED, TERRACED, BUNGALOW</text><line style="stroke:#181818;stroke-width:0.5;" x1="524.5" x2="908.6582" y1="1177.6211" y2="1177.6211"/></g><g id="elem_GMN22"><path d="M989.5,1139 L989.5,1148.5 L909.53,1152.5 L989.5,1156.5 L989.5,1166.291 A0,0 0 0 0 989.5,1166.291 L1295.2051,1166.291 A0,0 0 0 0 1295.2051,1166.291 L1295.2051,1149 L1285.2051,1139 L989.5,1139 A0,0 0 0 0 989.5,1139 " fill="#FEFFDD" style="stroke:#181818;stroke-width:0.5;"/><path d="M1285.2051,1139 L1285.2051,1149 L1295.2051,1149 L1285.2051,1139 " fill="#FEFFDD" style="stroke:#181818;stroke-width:0.5;"/><text fill="#000000" font-family="sans-serif" font-size="13" lengthAdjust="spacing" textLength="284.7051" x="995.5" y="1158.0283">vrijstaand, half vrijstaand, rijtjeswoning, bungalow</text></g><!--class Picture--><g id="elem_Picture"><rect codeLine="75" fill="#F1F1F1" height="85.2422" id="Picture" rx="2.5" ry="2.5" style="stroke:#181818;stroke-width:0.5;" width="211.9922" x="1172.5" y="401"/><ellipse cx="1252.46" cy="417" fill="#ADD1B2" rx="11" ry="11" style="stroke:#181818;stroke-width:1.0;"/><path d="M1255.2256,412.875 Q1255.3818,412.6563 1255.5693,412.5469 Q1255.7568,412.4375 1255.9756,412.4375 Q1256.3506,412.4375 1256.585,412.7031 Q1256.8193,412.9531 1256.8193,413.5625 L1256.8193,415.0156 Q1256.8193,415.625 1256.585,415.8906 Q1256.3506,416.1563 1255.9756,416.1563 Q1255.6318,416.1563 1255.4287,415.9531 Q1255.2256,415.7656 1255.1162,415.25 Q1255.0693,414.8906 1254.8818,414.7031 Q1254.5537,414.3281 1253.9443,414.1094 Q1253.335,413.8906 1252.71,413.8906 Q1251.9443,413.8906 1251.3037,414.2188 Q1250.6787,414.5469 1250.1787,415.2969 Q1249.6943,416.0469 1249.6943,417.0781 L1249.6943,418.1719 Q1249.6943,419.4063 1250.585,420.2344 Q1251.4756,421.0469 1253.0693,421.0469 Q1254.0068,421.0469 1254.6631,420.7969 Q1255.0537,420.6406 1255.4756,420.2031 Q1255.7412,419.9375 1255.8818,419.8594 Q1256.0381,419.7813 1256.2412,419.7813 Q1256.5693,419.7813 1256.8193,420.0469 Q1257.085,420.2969 1257.085,420.6406 Q1257.085,420.9844 1256.7412,421.3906 Q1256.2412,421.9688 1255.4443,422.2969 Q1254.3662,422.75 1253.0693,422.75 Q1251.5537,422.75 1250.3506,422.125 Q1249.3662,421.625 1248.6787,420.5625 Q1247.9912,419.4844 1247.9912,418.2031 L1247.9912,417.0469 Q1247.9912,415.7188 1248.6006,414.5781 Q1249.2256,413.4219 1250.3193,412.8125 Q1251.4131,412.1875 1252.6475,412.1875 Q1253.3818,412.1875 1254.0225,412.3594 Q1254.6787,412.5156 1255.2256,412.875 Z " fill="#000000"/><text fill="#000000" font-family="sans-serif" font-size="14" lengthAdjust="spacing" textLength="43.5723" x="1272.96" y="422.7969">Picture</text><line style="stroke:#181818;stroke-width:0.5;" x1="1173.5" x2="1383.4922" y1="433" y2="433"/><ellipse cx="1183.5" cy="447.8105" fill="none" rx="3" ry="3" style="stroke:#038048;stroke-width:1.0;"/><text fill="#000000" font-family="sans-serif" font-size="14" lengthAdjust="spacing" textLength="185.9922" x="1192.5" y="452.1074">description : String {readOnly}</text><ellipse cx="1183.5" cy="466.4316" fill="none" rx="3" ry="3" style="stroke:#038048;stroke-width:1.0;"/><text fill="#000000" font-family="sans-serif" font-size="14" lengthAdjust="spacing" textLength="137.7305" x="1192.5" y="470.7285">image : Url {readOnly}</text><line style="stroke:#181818;stroke-width:0.5;" x1="1173.5" x2="1383.4922" y1="478.2422" y2="478.2422"/></g><!--class Bid--><g id="elem_Bid"><rect codeLine="88" fill="#F1F1F1" height="103.8633" id="Bid" rx="2.5" ry="2.5" style="stroke:#181818;stroke-width:0.5;" width="225.9717" x="20.5" y="391.5"/><ellipse cx="119.1187" cy="407.5" fill="#ADD1B2" rx="11" ry="11" style="stroke:#181818;stroke-width:1.0;"/><path d="M121.8843,403.375 Q122.0405,403.1563 122.228,403.0469 Q122.4155,402.9375 122.6343,402.9375 Q123.0093,402.9375 123.2437,403.2031 Q123.478,403.4531 123.478,404.0625 L123.478,405.5156 Q123.478,406.125 123.2437,406.3906 Q123.0093,406.6563 122.6343,406.6563 Q122.2905,406.6563 122.0874,406.4531 Q121.8843,406.2656 121.7749,405.75 Q121.728,405.3906 121.5405,405.2031 Q121.2124,404.8281 120.603,404.6094 Q119.9937,404.3906 119.3687,404.3906 Q118.603,404.3906 117.9624,404.7188 Q117.3374,405.0469 116.8374,405.7969 Q116.353,406.5469 116.353,407.5781 L116.353,408.6719 Q116.353,409.9063 117.2437,410.7344 Q118.1343,411.5469 119.728,411.5469 Q120.6655,411.5469 121.3218,411.2969 Q121.7124,411.1406 122.1343,410.7031 Q122.3999,410.4375 122.5405,410.3594 Q122.6968,410.2813 122.8999,410.2813 Q123.228,410.2813 123.478,410.5469 Q123.7437,410.7969 123.7437,411.1406 Q123.7437,411.4844 123.3999,411.8906 Q122.8999,412.4688 122.103,412.7969 Q121.0249,413.25 119.728,413.25 Q118.2124,413.25 117.0093,412.625 Q116.0249,412.125 115.3374,411.0625 Q114.6499,409.9844 114.6499,408.7031 L114.6499,407.5469 Q114.6499,406.2188 115.2593,405.0781 Q115.8843,403.9219 116.978,403.3125 Q118.0718,402.6875 119.3062,402.6875 Q120.0405,402.6875 120.6812,402.8594 Q121.3374,403.0156 121.8843,403.375 Z " fill="#000000"/><text fill="#000000" font-family="sans-serif" font-size="14" lengthAdjust="spacing" textLength="20.2344" x="139.6187" y="413.2969">Bid</text><line style="stroke:#181818;stroke-width:0.5;" x1="21.5" x2="245.4717" y1="423.5" y2="423.5"/><ellipse cx="31.5" cy="438.3105" fill="none" rx="3" ry="3" style="stroke:#038048;stroke-width:1.0;"/><text fill="#000000" font-family="sans-serif" font-size="14" lengthAdjust="spacing" textLength="199.9717" x="40.5" y="442.6074">customer : Customer {readOnly}</text><ellipse cx="31.5" cy="456.9316" fill="none" rx="3" ry="3" style="stroke:#038048;stroke-width:1.0;"/><text fill="#000000" font-family="sans-serif" font-size="14" lengthAdjust="spacing" textLength="174.3164" x="40.5" y="461.2285">priceOffered : Int {readOnly}</text><ellipse cx="31.5" cy="475.5527" fill="none" rx="3" ry="3" style="stroke:#038048;stroke-width:1.0;"/><text fill="#000000" font-family="sans-serif" font-size="14" lengthAdjust="spacing" textLength="185.2061" x="40.5" y="479.8496">timeOfBid : Instant {readOnly}</text><line style="stroke:#181818;stroke-width:0.5;" x1="21.5" x2="245.4717" y1="487.3633" y2="487.3633"/></g><!--class Customer--><g id="elem_Customer"><rect codeLine="99" fill="#F1F1F1" height="85.2422" id="Customer" rx="2.5" ry="2.5" style="stroke:#181818;stroke-width:0.5;" width="179.3096" x="44" y="646"/><ellipse cx="99.0635" cy="662" fill="#ADD1B2" rx="11" ry="11" style="stroke:#181818;stroke-width:1.0;"/><path d="M101.8291,657.875 Q101.9854,657.6563 102.1729,657.5469 Q102.3604,657.4375 102.5791,657.4375 Q102.9541,657.4375 103.1885,657.7031 Q103.4229,657.9531 103.4229,658.5625 L103.4229,660.0156 Q103.4229,660.625 103.1885,660.8906 Q102.9541,661.1563 102.5791,661.1563 Q102.2354,661.1563 102.0322,660.9531 Q101.8291,660.7656 101.7197,660.25 Q101.6729,659.8906 101.4854,659.7031 Q101.1572,659.3281 100.5479,659.1094 Q99.9385,658.8906 99.3135,658.8906 Q98.5479,658.8906 97.9072,659.2188 Q97.2822,659.5469 96.7822,660.2969 Q96.2979,661.0469 96.2979,662.0781 L96.2979,663.1719 Q96.2979,664.4063 97.1885,665.2344 Q98.0791,666.0469 99.6729,666.0469 Q100.6104,666.0469 101.2666,665.7969 Q101.6572,665.6406 102.0791,665.2031 Q102.3447,664.9375 102.4854,664.8594 Q102.6416,664.7813 102.8447,664.7813 Q103.1729,664.7813 103.4229,665.0469 Q103.6885,665.2969 103.6885,665.6406 Q103.6885,665.9844 103.3447,666.3906 Q102.8447,666.9688 102.0479,667.2969 Q100.9697,667.75 99.6729,667.75 Q98.1572,667.75 96.9541,667.125 Q95.9697,666.625 95.2822,665.5625 Q94.5947,664.4844 94.5947,663.2031 L94.5947,662.0469 Q94.5947,660.7188 95.2041,659.5781 Q95.8291,658.4219 96.9229,657.8125 Q98.0166,657.1875 99.251,657.1875 Q99.9854,657.1875 100.626,657.3594 Q101.2822,657.5156 101.8291,657.875 Z " fill="#000000"/><text fill="#000000" font-family="sans-serif" font-size="14" lengthAdjust="spacing" textLength="60.6826" x="119.5635" y="667.7969">Customer</text><line style="stroke:#181818;stroke-width:0.5;" x1="45" x2="222.3096" y1="678" y2="678"/><ellipse cx="55" cy="692.8105" fill="none" rx="3" ry="3" style="stroke:#038048;stroke-width:1.0;"/><text fill="#000000" font-family="sans-serif" font-size="14" lengthAdjust="spacing" textLength="153.3096" x="64" y="697.1074">name : String {readOnly}</text><ellipse cx="55" cy="711.4316" fill="none" rx="3" ry="3" style="stroke:#038048;stroke-width:1.0;"/><text fill="#000000" font-family="sans-serif" font-size="14" lengthAdjust="spacing" textLength="151.7441" x="64" y="715.7285">email : String {readOnly}</text><line style="stroke:#181818;stroke-width:0.5;" x1="45" x2="222.3096" y1="723.2422" y2="723.2422"/></g><path d="M723,301 L723,310.6455 L446.8857,437.0527 L723,318.6455 L723,328.291 A0,0 0 0 0 723,328.291 L898.1846,328.291 A0,0 0 0 0 898.1846,328.291 L898.1846,311 L888.1846,301 L723,301 A0,0 0 0 0 723,301 " fill="#FEFFDD" style="stroke:#181818;stroke-width:0.5;"/><path d="M888.1846,301 L888.1846,311 L898.1846,311 L888.1846,301 " fill="#FEFFDD" style="stroke:#181818;stroke-width:0.5;"/><text fill="#000000" font-family="sans-serif" font-size="13" lengthAdjust="spacing" textLength="154.1846" x="729" y="320.0283">if null -&gt; 'prijs op aanvraag'</text><path d="M723,338.291 L723,347.9365 L636.7061,482.2949 L723,355.9365 L723,365.582 A0,0 0 0 0 723,365.582 L961.1152,365.582 A0,0 0 0 0 961.1152,365.582 L961.1152,348.291 L951.1152,338.291 L723,338.291 A0,0 0 0 0 723,338.291 " fill="#FEFFDD" style="stroke:#181818;stroke-width:0.5;"/><path d="M951.1152,338.291 L951.1152,348.291 L961.1152,348.291 L951.1152,338.291 " fill="#FEFFDD" style="stroke:#181818;stroke-width:0.5;"/><text fill="#000000" font-family="sans-serif" font-size="13" lengthAdjust="spacing" textLength="217.1152" x="729" y="357.3193">if (isAccepted(bid)) -&gt; allBids.add(bid)</text><path d="M723,375.582 L723,471.6826 L521.5752,519.5371 L723,479.6826 L723,575.7832 A0,0 0 0 0 723,575.7832 L1091.9277,575.7832 A0,0 0 0 0 1091.9277,575.7832 L1091.9277,385.582 L1081.9277,375.582 L723,375.582 A0,0 0 0 0 723,375.582 " fill="#FEFFDD" style="stroke:#181818;stroke-width:0.5;"/><path d="M1081.9277,375.582 L1081.9277,385.582 L1091.9277,385.582 L1081.9277,375.582 " fill="#FEFFDD" style="stroke:#181818;stroke-width:0.5;"/><text fill="#000000" font-family="sans-serif" font-size="13" lengthAdjust="spacing" textLength="153.1753" x="729" y="394.6104">Estimated yearly payment:</text><text fill="#000000" font-family="sans-serif" font-size="13" lengthAdjust="spacing" textLength="265.1987" x="729" y="411.9014">- mortgage (based on interest and repayment)</text><text fill="#000000" font-family="sans-serif" font-size="13" lengthAdjust="spacing" textLength="51.3018" x="729" y="429.1924">- energy:</text><text fill="#000000" font-family="sans-serif" font-size="13" lengthAdjust="spacing" textLength="258.375" x="747.0591" y="446.4834">detached house, bungalow -&gt; livingArea * 15</text><text fill="#000000" font-family="sans-serif" font-size="13" lengthAdjust="spacing" textLength="227.2715" x="747.0591" y="463.7744">semi-detached house -&gt; livingArea * 13</text><text fill="#000000" font-family="sans-serif" font-size="13" lengthAdjust="spacing" textLength="189.6934" x="747.0591" y="481.0654">terraced house -&gt; livingArea * 11</text><text fill="#000000" font-family="sans-serif" font-size="13" lengthAdjust="spacing" textLength="158.6025" x="747.0591" y="498.3564">apartment --&gt; livingArea * 9</text><text fill="#000000" font-family="sans-serif" font-size="13" lengthAdjust="spacing" textLength="3.6118" x="729" y="515.6475">&#160;</text><text fill="#000000" font-family="sans-serif" font-size="13" lengthAdjust="spacing" textLength="132.9517" x="729" y="532.9385">Additional yearly costs:</text><text fill="#000000" font-family="sans-serif" font-size="13" lengthAdjust="spacing" textLength="347.9277" x="729" y="550.2295">- House: yearly cost maintenance: 1% of price + plotArea * 5</text><text fill="#000000" font-family="sans-serif" font-size="13" lengthAdjust="spacing" textLength="230.4771" x="729" y="567.5205">- Apartment: cost vve (livingArea * 15%)</text><!--class Legend--><g id="elem_Legend"><rect codeLine="130" fill="#F1F1F1" height="234.2109" id="Legend" rx="2.5" ry="2.5" style="stroke:#181818;stroke-width:0.5;" width="180.8682" x="1253" y="7"/><ellipse cx="1315.8257" cy="23" fill="#ADD1B2" rx="11" ry="11" style="stroke:#181818;stroke-width:1.0;"/><path d="M1318.5913,18.875 Q1318.7476,18.6563 1318.9351,18.5469 Q1319.1226,18.4375 1319.3413,18.4375 Q1319.7163,18.4375 1319.9507,18.7031 Q1320.1851,18.9531 1320.1851,19.5625 L1320.1851,21.0156 Q1320.1851,21.625 1319.9507,21.8906 Q1319.7163,22.1563 1319.3413,22.1563 Q1318.9976,22.1563 1318.7944,21.9531 Q1318.5913,21.7656 1318.4819,21.25 Q1318.4351,20.8906 1318.2476,20.7031 Q1317.9194,20.3281 1317.3101,20.1094 Q1316.7007,19.8906 1316.0757,19.8906 Q1315.3101,19.8906 1314.6694,20.2188 Q1314.0444,20.5469 1313.5444,21.2969 Q1313.0601,22.0469 1313.0601,23.0781 L1313.0601,24.1719 Q1313.0601,25.4063 1313.9507,26.2344 Q1314.8413,27.0469 1316.4351,27.0469 Q1317.3726,27.0469 1318.0288,26.7969 Q1318.4194,26.6406 1318.8413,26.2031 Q1319.1069,25.9375 1319.2476,25.8594 Q1319.4038,25.7813 1319.6069,25.7813 Q1319.9351,25.7813 1320.1851,26.0469 Q1320.4507,26.2969 1320.4507,26.6406 Q1320.4507,26.9844 1320.1069,27.3906 Q1319.6069,27.9688 1318.8101,28.2969 Q1317.7319,28.75 1316.4351,28.75 Q1314.9194,28.75 1313.7163,28.125 Q1312.7319,27.625 1312.0444,26.5625 Q1311.3569,25.4844 1311.3569,24.2031 L1311.3569,23.0469 Q1311.3569,21.7188 1311.9663,20.5781 Q1312.5913,19.4219 1313.6851,18.8125 Q1314.7788,18.1875 1316.0132,18.1875 Q1316.7476,18.1875 1317.3882,18.3594 Q1318.0444,18.5156 1318.5913,18.875 Z " fill="#000000"/><text fill="#000000" font-family="sans-serif" font-size="14" lengthAdjust="spacing" textLength="46.7168" x="1336.3257" y="28.7969">Legend</text><line style="stroke:#181818;stroke-width:0.5;" x1="1254" x2="1432.8682" y1="39" y2="39"/><ellipse cx="1264" cy="53.8105" fill="none" rx="3" ry="3" style="stroke:#038048;stroke-width:1.0;"/><text fill="#000000" font-family="sans-serif" font-size="14" lengthAdjust="spacing" textLength="86.3721" x="1273" y="58.1074">publicVar : T1</text><ellipse cx="1264" cy="72.4316" fill="none" rx="3" ry="3" style="stroke:#038048;stroke-width:1.0;"/><text fill="#000000" font-family="sans-serif" font-size="14" lengthAdjust="spacing" textLength="154.8682" x="1273" y="76.7285">publicVal : T1 {readOnly}</text><ellipse cx="1264" cy="91.0527" fill="none" rx="3" ry="3" style="stroke:#038048;stroke-width:1.0;"/><text fill="#000000" font-family="sans-serif" font-size="14" lengthAdjust="spacing" text-decoration="underline" textLength="54.4619" x="1273" y="95.3496">staticVar</text><polygon fill="none" points="1264,104.6738,1268,108.6738,1264,112.6738,1260,108.6738" style="stroke:#B38D22;stroke-width:1.0;"/><text fill="#000000" font-family="sans-serif" font-size="14" lengthAdjust="spacing" textLength="116.7236" x="1273" y="113.9707">protectedField : T2</text><rect fill="none" height="6" style="stroke:#C82930;stroke-width:1.0;" width="6" x="1261" y="125.2949"/><text fill="#000000" font-family="sans-serif" font-size="14" lengthAdjust="spacing" textLength="100.3721" x="1273" y="132.5918">privateField : T3</text><line style="stroke:#181818;stroke-width:0.5;" x1="1254" x2="1432.8682" y1="140.1055" y2="140.1055"/><ellipse cx="1264" cy="154.916" fill="#84BE84" rx="3" ry="3" style="stroke:#038048;stroke-width:1.0;"/><text fill="#000000" font-family="sans-serif" font-size="14" lengthAdjust="spacing" textLength="98.0342" x="1273" y="159.2129">publicFun() : T1</text><ellipse cx="1264" cy="173.5371" fill="#84BE84" rx="3" ry="3" style="stroke:#038048;stroke-width:1.0;"/><text fill="#000000" font-family="sans-serif" font-size="14" lengthAdjust="spacing" text-decoration="underline" textLength="66.124" x="1273" y="177.834">staticFun()</text><ellipse cx="1264" cy="192.1582" fill="#84BE84" rx="3" ry="3" style="stroke:#038048;stroke-width:1.0;"/><text fill="#000000" font-family="sans-serif" font-size="14" font-style="italic" lengthAdjust="spacing" textLength="111.2549" x="1273" y="196.4551">abstractFun() : T1</text><polygon fill="#FFFF44" points="1264,205.7793,1268,209.7793,1264,213.7793,1260,209.7793" style="stroke:#B38D22;stroke-width:1.0;"/><text fill="#000000" font-family="sans-serif" font-size="14" lengthAdjust="spacing" textLength="119.8271" x="1273" y="215.0762">protectedFun() : T2</text><rect fill="#F24D5C" height="6" style="stroke:#C82930;stroke-width:1.0;" width="6" x="1261" y="226.4004"/><text fill="#000000" font-family="sans-serif" font-size="14" lengthAdjust="spacing" textLength="103.4756" x="1273" y="233.6973">privateFun() : T3</text></g><!--link HousingMarket to Property--><!--reverse link HousingMarket to Property--><g id="link_HousingMarket_Property"><path codeLine="20" d="M339.5847,222.0748 C377.8847,266.1148 411.72,310.24 442.53,354.31 " fill="none" id="HousingMarket-backto-Property" style="stroke:#181818;stroke-width:1.0;"/><polygon fill="none" points="331.71,213.02,332.6291,220.1723,339.5847,222.0748,338.6656,214.9225,331.71,213.02" style="stroke:#181818;stroke-width:1.0;"/><text fill="#000000" font-family="sans-serif" font-size="13" lengthAdjust="spacing" textLength="80.209" x="355.742" y="343.246">allHouses 0..*</text></g><!--reverse link Locatable to Property--><g id="link_Locatable_Property"><path codeLine="37" d="M1049.3792,171.2071 C1026.1992,197.7471 1001.89,220.49 962.5,241 C850,299.56 799.57,249.87 683.5,301 C651.79,314.97 620.03,334.45 591.5,354.49 " fill="none" id="Locatable-backto-Property" style="stroke:#181818;stroke-width:1.0;stroke-dasharray:7.0,7.0;"/><polygon fill="none" points="1061.22,157.65,1044.8602,167.2602,1053.8983,175.1541,1061.22,157.65" style="stroke:#181818;stroke-width:1.0;"/></g><!--link Garage to Apartment--><!--link Apartment to House--><!--link House to HousingType--><!--link Property to Picture--><!--reverse link Property to Picture--><g id="link_Property_Picture"><path codeLine="81" d="M587.0304,346.7725 C631.5204,310.3025 678.45,279.9 736.83,261 C809.21,237.57 1007,236.94 1079.17,261 C1153.06,285.63 1214.93,355.05 1249.31,400.82 " fill="none" id="Property-backto-Picture" style="stroke:#181818;stroke-width:1.0;"/><polygon fill="none" points="577.75,354.38,584.926,353.6697,587.0304,346.7725,579.8544,347.4828,577.75,354.38" style="stroke:#181818;stroke-width:1.0;"/></g><!--reverse link Property to House--><g id="link_Property_House"><path codeLine="84" d="M593.277,545.685 C655.527,610.115 717.78,690.52 747.5,791 C763.65,845.61 749.96,910.6 736.02,954.72 " fill="none" id="Property-backto-House" style="stroke:#181818;stroke-width:1.0;"/><polygon fill="none" points="580.77,532.74,588.962,549.854,597.5921,541.516,580.77,532.74" style="stroke:#181818;stroke-width:1.0;"/></g><!--reverse link Property to Apartment--><g id="link_Property_Apartment"><path codeLine="85" d="M545.978,548.8197 C564.128,583.0197 574.24,607.3 585.5,646 C599.4,693.79 603.96,750.57 605.31,790.68 " fill="none" id="Property-backto-Apartment" style="stroke:#181818;stroke-width:1.0;"/><polygon fill="none" points="537.54,532.92,540.6781,551.6324,551.2779,546.007,537.54,532.92" style="stroke:#181818;stroke-width:1.0;"/></g><!--reverse link Property to Garage--><g id="link_Property_Garage"><path codeLine="86" d="M458.4386,550.046 C448.8886,588.756 442.43,614.9 434.75,645.97 " fill="none" id="Property-backto-Garage" style="stroke:#181818;stroke-width:1.0;"/><polygon fill="none" points="462.75,532.57,452.6132,548.6089,464.2639,551.4832,462.75,532.57" style="stroke:#181818;stroke-width:1.0;"/></g><!--link Bid to Property--><g id="link_Bid_Property"><path codeLine="95" d="M246.62,477.57 C273.1,481.76 287.5913,483.8005 314.0813,482.6505 " fill="none" id="Bid-to-Property" style="stroke:#181818;stroke-width:1.0;"/><polygon fill="#181818" points="326.07,482.13,319.9022,478.394,314.0813,482.6505,320.2491,486.3865,326.07,482.13" style="stroke:#181818;stroke-width:1.0;"/><text fill="#000000" font-family="sans-serif" font-size="13" lengthAdjust="spacing" textLength="54.2026" x="254.2891" y="476.0084">_bids 0..*</text></g><!--link Bid to Property--><!--link Bid to Customer--><!--link Bid to Customer--><g id="link_Bid_Customer"><path codeLine="105" d="M158.5,495.74 C165.69,540.3 166.3064,598.1765 157.9964,639.7365 " fill="none" id="Bid-to-Customer" style="stroke:#181818;stroke-width:1.0;"/><polygon fill="#181818" points="156.82,645.62,162.507,637.579,157.8004,640.7171,154.6623,636.0104,156.82,645.62" style="stroke:#181818;stroke-width:1.0;"/></g><!--SRC=[fLPjJnj74Fw-ls945M4eHX0QgRKebI5EY0G59OH-gAfeVJUs5_Pshxjx9YxXltTcxzsOAbBvWFTcPkVrcPdTXiAaDYaoD665ASnGXi8XpAm3dyj4cVb8-7jbSkba1iQcw367dm_4TajrqjmpzQS38RONAaN8C9kYyq8aMdeFvxRmfEbIkdiCy2X-19akqGNbSR2m6S88hftDYRBQsSIyK3uSrn8dBFBeWmmgUGA_i0_ZMfwZy0EF6fEWh5c_k0VA9Bf8yLIbVWIdrcgKXjLvb2vP3FukqAt8tg3n1eOdZTmpHzgBcJBNJYNiwmSJu5Sus8DCVktJwF_-fVnwAtM1lHYK2UZG1v9yQukfHZ44gJLd3JqHBuiWYRfc_8cIdLklE58eyrmpgqJBgLtY6alqQp7ya-gLelcBudn1n0w7iDMwSx2_lxlLoWevzS799ApPgQgSKboKwa_1aK9uT2ZJAwDNJyJKQacqCP7A1FMOEMTkxEynZSpVM9dMNBUw2dJc0gJsQZP3DqWA7mWiRWHdrMclL1BPbPeTIgpouoJ1F60wwFBBAd6Dgt9pWUhOdc2EuTAQiD2hQxagORO3bMjFmjY046mETjOcO0HXeNoL5eSvPOBlWJGjm5bJx3L94b8FaI61C7Ns7fqG4HWpIHYwi8cC88Xv9MyYWIeVtRYGz6tc38bMyFZR_dwdJk-fLUVOAJYCgNi3Uo2QKuSTorqtS7MPRI-adt1_KUvKZBBALxz-_vslIcjZblNEjAKyR892gU3SoatSxoYCK_D5uD8qzaQZLgd8okkrdLYE63nSFHXqCFRU9Yec6mQtjvCTWIO5rjmTRsLomYhdVgyQw8Q_-h5e6nZn_pUIQ96YgDG9Fe1anSf0zhhZ8PeYw_iZtavkncVdaxTxdoQN7xuqNt0p-VXnVCQdqy-_lnzVNFr1TilOEgZfwDhWLCrPEdL7M9OctIF4w1bq2NGCT-WVh27nFPWMPYwrVUXuNMVsMYLn7N5kQVCaJkMn3fidYieOf2Fux7INGNXhcj8saPpKohlCOKCKsodEb47QWaZLr-gVY00F0sKMw5H0az0KR-uUVnkMkS4rMjjbVNhPKdMWDCrYaFKOWtQERHYClPdLvmUL4PlLCPCotXVWfI7R6KNDJAE7XXnD3qXirkmJXxf4_8CA2n99hAwMAbUQrTlf7H6yuFFMbobFvd8r38UxqCwTzHN5ui7IQ4JGE8kuMLjGBD6jKZF1IhasBHIjaV5zi0aCc4cbD_8e1pqRmqPdIQTLs13M85uxGwtNB2YXPc0AhVcfi9qpp84s0I5zwQISRtTG_PAkQeUnea5dFL5ET-83fDfy-xHE8_4xL3uV9cBY2HkqNL9OqQEb7NWZMegPTM7EpJEOIayILAxcKK8jo-kh5EODYZGLvwkH0FvBCSXaGLSMZFsscTdlTiF3BXo-AI_GqbF3_gtdiaUbB7b0w_TbiSDIJBRhQrta5o76QHe1A7KTU69zy1nsEKQxP7grSU16KdUFuF0LPpMM6Zh3UnVUY4vZZygRItfh3TP2VjMjLGNW2vmpZU6RqsDF9RUIs_tci4FGaT07TFlaZRzqI_n0lf7gX8hwJg7cdhzvJQwHnqkgT4CxQbI_AyeNGxHMQon_8gltwgaFdKjTYpMrQx6c7L6N_Gi0]--></g></svg>